PathFileType	4	(X/Y/Z)	 1.9Hzhigh3min.trc
DataRate	CameraRate	NumFrames	NumMarkers	Units	OrigDataRate	OrigDataStartFrame	OrigNumFrames
200	200	10	39	m	200	126	1000
Frame#	Time	C7			LSH			RSH			MAN			RASI			LASI			HIPR			HIPL			RPSI			LPSI			COX			RTHI1			RTHI2			RTHI3			RTHI4			RLKN			RMKN			RSHA1			RSHA2			RSHA3			RSHA4			RHEEL			RMET5			RMET1			RTOE			LTHI1			LTHI2			LTHI3			LTHI4			LLKN			LMKN			LSHA1			LSHA2			LSHA3			LSHA4			LHEEL			LMET5			LMET1			LTOE			
		X1	Y1	Z1	X2	Y2	Z2	X3	Y3	Z3	X4	Y4	Z4	X5	Y5	Z5	X6	Y6	Z6	X7	Y7	Z7	X8	Y8	Z8	X9	Y9	Z9	X10	Y10	Z10	X11	Y11	Z11	X12	Y12	Z12	X13	Y13	Z13	X14	Y14	Z14	X15	Y15	Z15	X16	Y16	Z16	X17	Y17	Z17	X18	Y18	Z18	X19	Y19	Z19	X20	Y20	Z20	X21	Y21	Z21	X22	Y22	Z22	X23	Y23	Z23	X24	Y24	Z24	X25	Y25	Z25	X26	Y26	Z26	X27	Y27	Z27	X28	Y28	Z28	X29	Y29	Z29	X30	Y30	Z30	X31	Y31	Z31	X32	Y32	Z32	X33	Y33	Z33	X34	Y34	Z34	X35	Y35	Z35	X36	Y36	Z36	X37	Y37	Z37	X38	Y38	Z38	X39	Y39	Z39	
126	0.6300	-0.316594	1.502629	-0.576502	-0.235530	1.516011	-0.735081	-0.269791	1.501850	-0.410005	-0.182938	1.471310	-0.566648	-0.145526	1.066421	-0.452991	-0.130400	1.067715	-0.672578	-0.201641	1.125055	-0.429261	-0.184268	1.117743	-0.706808	-0.294771	1.108131	-0.518077	-0.292507	1.107368	-0.624519	-0.298684	1.114608	-0.568707	-0.254545	0.870116	-0.400680	-0.241483	0.811876	-0.397084	-0.179336	0.825287	-0.382841	-0.185324	0.886211	-0.385312	-0.192874	0.571066	-0.416367	-0.170849	0.562264	-0.499459	-0.267793	0.477372	-0.387950	-0.275364	0.434908	-0.390190	-0.211108	0.471034	-0.392073	-0.214635	0.430595	-0.390110	-0.307675	0.201371	-0.441982	-0.205633	0.079908	-0.389416	-0.168112	0.081824	-0.448693	-0.149559	0.064881	-0.441290	-0.231841	0.865991	-0.744242	-0.212795	0.807441	-0.745346	-0.149949	0.822015	-0.744593	-0.159852	0.881549	-0.743599	-0.192566	0.571063	-0.718796	-0.178700	0.570309	-0.631781	-0.262906	0.440252	-0.740650	-0.269973	0.400237	-0.739294	-0.207203	0.396137	-0.735880	-0.208853	0.440241	-0.737892	-0.306901	0.191125	-0.687863	-0.199152	0.087529	-0.750470	-0.162398	0.077757	-0.692559	-0.143668	0.060393	-0.695477	
127	0.6350	-0.316683	1.504640	-0.576500	-0.235470	1.517974	-0.735365	-0.269922	1.503809	-0.409962	-0.182933	1.473235	-0.566787	-0.145756	1.068408	-0.452730	-0.130722	1.069395	-0.672616	-0.202030	1.126710	-0.429102	-0.184575	1.119266	-0.706809	-0.295156	1.109882	-0.518003	-0.292859	1.108937	-0.624554	-0.299079	1.116366	-0.568656	-0.255362	0.872196	-0.400806	-0.242321	0.813787	-0.397337	-0.180116	0.826935	-0.382680	-0.186224	0.888182	-0.385286	-0.192823	0.573175	-0.416868	-0.171472	0.564750	-0.500042	-0.267593	0.479638	-0.388041	-0.275347	0.437311	-0.390152	-0.210943	0.473400	-0.392649	-0.214477	0.432917	-0.390597	-0.308562	0.202641	-0.442726	-0.204285	0.083674	-0.388895	-0.166832	0.085400	-0.448454	-0.147884	0.068836	-0.441053	-0.232482	0.867285	-0.743998	-0.213475	0.808712	-0.745064	-0.150560	0.823384	-0.744564	-0.160579	0.882819	-0.743683	-0.191693	0.572747	-0.718496	-0.178259	0.572450	-0.631433	-0.262243	0.442502	-0.740800	-0.269544	0.402473	-0.739673	-0.206845	0.397927	-0.735353	-0.208238	0.442016	-0.737358	-0.308264	0.192280	-0.687513	-0.198670	0.091636	-0.751730	-0.161660	0.081307	-0.694091	-0.142642	0.064026	-0.697385	
128	0.6400	-0.316707	1.506454	-0.576731	-0.234855	1.519556	-0.735506	-0.270016	1.505422	-0.409925	-0.182721	1.474899	-0.566958	-0.146067	1.070164	-0.452399	-0.131116	1.070758	-0.672635	-0.202496	1.128262	-0.428948	-0.184934	1.120462	-0.706800	-0.295595	1.111403	-0.518045	-0.293207	1.110259	-0.624584	-0.299531	1.117865	-0.568664	-0.256070	0.874077	-0.400899	-0.243070	0.815502	-0.397457	-0.180738	0.829161	-0.382982	-0.186875	0.890029	-0.385376	-0.192737	0.575064	-0.417395	-0.172113	0.567072	-0.500681	-0.267412	0.481764	-0.388190	-0.275361	0.439474	-0.390224	-0.210834	0.475217	-0.393379	-0.214553	0.434810	-0.391295	-0.309528	0.203668	-0.443663	-0.203076	0.087145	-0.388439	-0.165794	0.088598	-0.448228	-0.146402	0.072430	-0.440832	-0.233069	0.868371	-0.743835	-0.213916	0.809919	-0.744839	-0.151073	0.824544	-0.744524	-0.161214	0.884043	-0.743623	-0.190729	0.574296	-0.718154	-0.177750	0.574387	-0.631052	-0.261582	0.444463	-0.740988	-0.269176	0.404327	-0.739874	-0.206613	0.399586	-0.734911	-0.207642	0.443549	-0.736896	-0.309859	0.193263	-0.687487	-0.198306	0.095564	-0.752797	-0.161245	0.084693	-0.695760	-0.141908	0.067653	-0.699481	
129	0.6450	-0.316689	1.508072	-0.576786	-0.235734	1.521051	-0.736083	-0.270082	1.506763	-0.409850	-0.182185	1.476250	-0.567157	-0.146382	1.071732	-0.452141	-0.131529	1.071915	-0.672664	-0.202793	1.129792	-0.428857	-0.185306	1.121401	-0.706757	-0.296084	1.112508	-0.518065	-0.293603	1.111346	-0.624589	-0.299975	1.119150	-0.568736	-0.256620	0.875576	-0.400734	-0.243479	0.817278	-0.397355	-0.181189	0.830317	-0.382873	-0.187482	0.891611	-0.385358	-0.192641	0.576747	-0.417872	-0.172708	0.569058	-0.501254	-0.267201	0.483579	-0.388311	-0.275337	0.441307	-0.390345	-0.210732	0.476841	-0.394074	-0.214581	0.436385	-0.391998	-0.310520	0.204536	-0.444680	-0.202076	0.090463	-0.388048	-0.164817	0.091754	-0.448176	-0.145105	0.075884	-0.440731	-0.233585	0.869265	-0.743586	-0.214187	0.810846	-0.744573	-0.151434	0.825751	-0.744494	-0.161725	0.885188	-0.743605	-0.189595	0.575544	-0.717768	-0.177147	0.576057	-0.630641	-0.261035	0.446063	-0.741020	-0.268876	0.406005	-0.739995	-0.206386	0.400797	-0.734417	-0.207092	0.444881	-0.736487	-0.311414	0.194099	-0.687445	-0.198113	0.099282	-0.753693	-0.160987	0.087919	-0.696941	-0.141411	0.070931	-0.700991	
130	0.6500	-0.316712	1.509480	-0.576887	-0.235644	1.522140	-0.736384	-0.270073	1.507964	-0.409771	-0.181773	1.477447	-0.567297	-0.146712	1.073090	-0.451927	-0.131963	1.072821	-0.672678	-0.203090	1.130968	-0.428835	-0.185715	1.122169	-0.706688	-0.296599	1.113594	-0.517997	-0.294058	1.112122	-0.624594	-0.300482	1.120018	-0.568612	-0.257098	0.876878	-0.400761	-0.243726	0.818759	-0.397328	-0.181589	0.832295	-0.383139	-0.187862	0.893200	-0.385354	-0.192406	0.578214	-0.418407	-0.173397	0.570705	-0.501839	-0.267061	0.485112	-0.388483	-0.275382	0.442808	-0.390652	-0.210680	0.478202	-0.394752	-0.214606	0.437786	-0.392665	-0.311500	0.205209	-0.445583	-0.201234	0.093527	-0.387814	-0.163986	0.094586	-0.448140	-0.144056	0.078953	-0.440548	-0.233919	0.869991	-0.743486	-0.214347	0.811645	-0.744449	-0.151598	0.826858	-0.744391	-0.162153	0.886165	-0.743533	-0.188363	0.576747	-0.717277	-0.176486	0.577437	-0.630254	-0.260494	0.447327	-0.740962	-0.268619	0.407572	-0.740197	-0.206190	0.401825	-0.733998	-0.206565	0.445890	-0.736059	-0.313064	0.194800	-0.687557	-0.198137	0.102558	-0.754431	-0.161047	0.090632	-0.697674	-0.141203	0.073866	-0.701997	
131	0.6550	-0.316672	1.510628	-0.576980	-0.236116	1.522994	-0.736814	-0.270070	1.508720	-0.409649	-0.182611	1.478239	-0.567305	-0.147048	1.074193	-0.451752	-0.132420	1.073557	-0.672714	-0.203432	1.132055	-0.428817	-0.186183	1.122706	-0.706630	-0.297218	1.114286	-0.517986	-0.294579	1.112700	-0.624473	-0.301064	1.120754	-0.568546	-0.257221	0.878205	-0.400449	-0.243794	0.819982	-0.397059	-0.181599	0.833637	-0.383103	-0.188074	0.894542	-0.385354	-0.192225	0.579449	-0.418884	-0.174214	0.572120	-0.502290	-0.266996	0.486454	-0.388802	-0.275425	0.443915	-0.390955	-0.210636	0.479139	-0.395268	-0.214672	0.438816	-0.393367	-0.312436	0.205777	-0.446596	-0.200584	0.096252	-0.387797	-0.163600	0.096794	-0.448240	-0.143299	0.081468	-0.440661	-0.234125	0.870562	-0.743363	-0.214270	0.812298	-0.744251	-0.151648	0.827708	-0.744179	-0.162402	0.887105	-0.743402	-0.187069	0.577741	-0.716795	-0.175840	0.578577	-0.629835	-0.260049	0.448395	-0.740827	-0.268369	0.408718	-0.739778	-0.206029	0.402623	-0.733603	-0.206134	0.446610	-0.735779	-0.314782	0.195386	-0.687736	-0.198257	0.105309	-0.754897	-0.161349	0.093324	-0.698250	-0.141263	0.076485	-0.702629	
132	0.6600	-0.316642	1.511557	-0.576932	-0.237496	1.523838	-0.737477	-0.269945	1.509386	-0.409532	-0.183632	1.479066	-0.567223	-0.147451	1.075094	-0.451554	-0.132803	1.074125	-0.672697	-0.203752	1.133038	-0.428861	-0.186628	1.123052	-0.706529	-0.297838	1.114759	-0.518000	-0.295133	1.113008	-0.624440	-0.301632	1.121203	-0.568509	-0.257337	0.879011	-0.400202	-0.243808	0.820820	-0.397148	-0.181522	0.834488	-0.383261	-0.188144	0.895525	-0.385330	-0.192131	0.580243	-0.419338	-0.174797	0.573183	-0.502868	-0.266978	0.487305	-0.389014	-0.275511	0.445138	-0.391104	-0.210638	0.479995	-0.395944	-0.214817	0.439688	-0.394031	-0.313457	0.206013	-0.447868	-0.200238	0.098603	-0.387939	-0.163312	0.098881	-0.448509	-0.142748	0.083708	-0.440829	-0.234229	0.870979	-0.743266	-0.214064	0.812782	-0.744118	-0.151420	0.828675	-0.743934	-0.162555	0.887886	-0.743206	-0.185708	0.578557	-0.716245	-0.175164	0.579460	-0.629359	-0.259517	0.449526	-0.740591	-0.268241	0.409816	-0.739889	-0.205905	0.403200	-0.733236	-0.205644	0.447249	-0.735396	-0.316483	0.195855	-0.688021	-0.198592	0.107751	-0.755202	-0.161888	0.095417	-0.698454	-0.141602	0.078772	-0.702874	
133	0.6650	-0.316649	1.512245	-0.576806	-0.238159	1.524183	-0.737905	-0.269805	1.509745	-0.409419	-0.182907	1.479624	-0.567347	-0.147759	1.075774	-0.451186	-0.133261	1.074575	-0.672657	-0.204087	1.133837	-0.428885	-0.187135	1.123228	-0.706471	-0.298474	1.115038	-0.518075	-0.295665	1.113139	-0.624473	-0.302194	1.121413	-0.568506	-0.257174	0.879725	-0.399681	-0.243458	0.821787	-0.396490	-0.181160	0.835524	-0.383409	-0.187914	0.896364	-0.385427	-0.192086	0.580984	-0.419764	-0.175262	0.574001	-0.503385	-0.266986	0.488010	-0.389623	-0.275625	0.445542	-0.391492	-0.210669	0.480396	-0.396791	-0.214965	0.440111	-0.394682	-0.314219	0.206120	-0.448885	-0.200118	0.100589	-0.388214	-0.163280	0.100684	-0.448909	-0.142563	0.085561	-0.441108	-0.234183	0.871196	-0.743200	-0.213649	0.813191	-0.743954	-0.151176	0.829276	-0.743546	-0.162639	0.888518	-0.742977	-0.184457	0.579053	-0.715720	-0.174489	0.580052	-0.628857	-0.259079	0.450275	-0.740452	-0.268164	0.410632	-0.739723	-0.205859	0.403665	-0.732891	-0.205323	0.447632	-0.735081	-0.318209	0.196280	-0.688429	-0.199067	0.109682	-0.755379	-0.162660	0.097150	-0.698412	-0.142212	0.080626	-0.702745	
134	0.6700	-0.316576	1.512718	-0.576776	-0.238067	1.524390	-0.738055	-0.269620	1.509846	-0.409306	-0.184946	1.479860	-0.567150	-0.148194	1.076208	-0.450997	-0.133720	1.074735	-0.672606	-0.204488	1.134250	-0.428931	-0.187731	1.123193	-0.706343	-0.299064	1.115105	-0.518068	-0.296226	1.113002	-0.624441	-0.302787	1.121425	-0.568528	-0.256865	0.880119	-0.399291	-0.242839	0.822189	-0.396534	-0.180720	0.836016	-0.383496	-0.187497	0.896834	-0.385476	-0.191969	0.581400	-0.420090	-0.175692	0.574464	-0.503834	-0.266954	0.488376	-0.389936	-0.275786	0.446055	-0.391959	-0.210722	0.480579	-0.397336	-0.215093	0.440335	-0.395294	-0.315188	0.206289	-0.449638	-0.200190	0.102118	-0.388670	-0.163319	0.102208	-0.449446	-0.142600	0.087069	-0.441593	-0.233986	0.871226	-0.743141	-0.213058	0.813361	-0.743650	-0.150692	0.829937	-0.743141	-0.162587	0.889096	-0.742715	-0.183026	0.579475	-0.715182	-0.173787	0.580466	-0.628360	-0.258667	0.450883	-0.740207	-0.267906	0.411230	-0.739142	-0.205791	0.403835	-0.732581	-0.204976	0.447837	-0.734859	-0.319884	0.196558	-0.688889	-0.199683	0.111148	-0.755321	-0.163614	0.098391	-0.698048	-0.143046	0.081990	-0.702397	
135	0.6750	-0.316532	1.512980	-0.576750	-0.237724	1.524246	-0.738112	-0.269350	1.509716	-0.409165	-0.185395	1.479787	-0.567105	-0.148629	1.076434	-0.450821	-0.134206	1.074634	-0.672515	-0.204991	1.134579	-0.428934	-0.188316	1.123010	-0.706190	-0.299706	1.115036	-0.518018	-0.296858	1.112663	-0.624321	-0.303466	1.121225	-0.568439	-0.256409	0.880337	-0.398741	-0.242244	0.822305	-0.396110	-0.179938	0.835770	-0.383552	-0.186933	0.897072	-0.385570	-0.191854	0.581501	-0.420435	-0.176146	0.574672	-0.504324	-0.266946	0.488437	-0.390126	-0.275941	0.446354	-0.392479	-0.210737	0.480719	-0.397481	-0.215231	0.440290	-0.395945	-0.316696	0.206574	-0.450555	-0.200513	0.103289	-0.389249	-0.163820	0.103116	-0.450172	-0.142893	0.088261	-0.442209	-0.233666	0.871002	-0.743034	-0.212300	0.813288	-0.743328	-0.150059	0.830333	-0.742584	-0.162385	0.889439	-0.742354	-0.181657	0.579634	-0.714674	-0.173095	0.580619	-0.627863	-0.258402	0.451138	-0.739995	-0.267905	0.411782	-0.739206	-0.205733	0.403892	-0.732305	-0.204610	0.447888	-0.734556	-0.321579	0.196719	-0.689375	-0.200408	0.112039	-0.755029	-0.164756	0.099393	-0.697578	-0.144116	0.082942	-0.701717	
